<svg fill="#000000" width="800px" height="800px" viewBox="0 0 24 24" id="cupcake" xmlns="http://www.w3.org/2000/svg" class="icon line-color">
  <defs>
    <!-- Cupcake base -->
    <linearGradient id="cupcakeBaseGradient" x1="0%" y1="50%" x2="100%" y2="50%">
      <stop offset="0%" stop-color="#5D2B10"/>  <!-- Darker brown on the left -->
      <stop offset="50%" stop-color="#8B4513"/>  <!-- Mid brown in the center -->
      <stop offset="100%" stop-color="#C08552"/>  <!-- Lighter brown on the right -->
    </linearGradient>

    <!-- Gold Sprinkle -->
    <radialGradient id="goldGradient" cx="70%" cy="30%" r="50%">
      <stop offset="0%" stop-color="#FFFBEA"/>  <!-- Bright highlight -->
      <stop offset="50%" stop-color="#FFD700"/> <!-- Rich gold -->
      <stop offset="100%" stop-color="#FFAA00"/> <!-- Deeper golden shade -->
    </radialGradient>

    <!-- Green Sprinkle -->    
    <radialGradient id="greenGradient" cx="70%" cy="30%" r="50%">
      <stop offset="0%" stop-color="#C8FFD4"/>  <!-- Bright highlight -->
      <stop offset="50%" stop-color="#00E676"/> <!-- Vivid green -->
      <stop offset="100%" stop-color="#008C3A"/> <!-- Deep green -->
    </radialGradient>

    <!-- Blue Sprinkle -->    
    <radialGradient id="blueGradient" cx="70%" cy="30%" r="50%">
      <stop offset="0%" stop-color="#D0EFFF"/>  <!-- Bright highlight -->
      <stop offset="50%" stop-color="#2196F3"/> <!-- Vibrant blue -->
      <stop offset="100%" stop-color="#005BB5"/> <!-- Deep blue -->
    </radialGradient>

    <!-- Yellow Sprinkle -->    
    <radialGradient id="yellowGradient" cx="70%" cy="30%" r="50%">
      <stop offset="0%" stop-color="#FFFACD"/>  <!-- Bright highlight -->
      <stop offset="50%" stop-color="#FFEB3B"/> <!-- Bold yellow -->
      <stop offset="100%" stop-color="#FFC107"/> <!-- Warm golden yellow -->
    </radialGradient>
    
    <!-- Pink Sprinkle -->    
    <radialGradient id="pinkGradient" cx="70%" cy="30%" r="50%">
      <stop offset="0%" stop-color="#FFB6C1"/>  <!-- Bright highlight -->
      <stop offset="50%" stop-color="#FF4081"/> <!-- Bold pink -->
      <stop offset="100%" stop-color="#D5005F"/> <!-- Deep magenta -->
    </radialGradient>

    <!-- Cherry gradient -->
    <radialGradient id="cherryGradient" cx="70%" cy="30%" r="50%">
      <stop offset="0%" stop-color="#FFC0CB"/>  <!-- Bright pink highlight -->
      <stop offset="50%" stop-color="#FF1744"/> <!-- Vibrant red -->
      <stop offset="100%" stop-color="#A00014"/> <!-- Deep red for shading -->
    </radialGradient>

    <!-- Cherry stem gradient -->
    <linearGradient id="stemGradient" x1="0%" y1="0%" x2="100%" y2="0%">
      <stop offset="0%" stop-color="#4CAF50"/>  <!-- Green highlight -->
      <stop offset="100%" stop-color="#2E7D32"/> <!-- Darker green shadow -->
    </linearGradient>    

    <!-- Frosting gradient -->
    <radialGradient id="frostingGradient" cx="50%" cy="10%" r="80%">
      <stop offset="0%" stop-color="#FFC1E3"/>  <!-- Lighter pink at the very top -->
      <stop offset="40%" stop-color="#FF85C2"/> <!-- Soft mid pink -->
      <stop offset="100%" stop-color="#E91E63"/> <!-- Deep pink shading at the bottom -->
    </radialGradient>
  </defs>

  <!-- Cupcake base -->
  <path
    d="M6.5,14 l1,5.5 a1,1 0 0 0 1,0.8 h7 a1,1 0 0 0 1-0.8 l1-5.5 z"
    fill="url(#cupcakeBaseGradient)"
    stroke="#5D2B10"
    stroke-width="1"
  />

  <!-- Frosting with a wavy pattern -->
  <path id="secondary" d="M6.08,13A3.56,3.56,0,0,1,5,10.5C5,8.28,7.35,7,7.35,7,9.24,9.24,12,9.11,16.44,9.5c2,.19,2.56,1.06,2.56,1.89A1.7,1.7,0,0,1,17.92,13ZM7.35,7C9.24,9.24,12,9.11,16.44,9.5a4.4,4.4,0,0,1,1.61.41C18.58,9.1,19.81,7,15,6c-3.9-.78-5-3-5-3A4,4,0,0,0,7.35,7Z" 
        style="fill: url(#frostingGradient); stroke: #B80E4F; stroke-linecap: round; stroke-linejoin: round; stroke-width: 1;"></path>

  <!-- Sprinkles -->  
  <ellipse cx="7.5" cy="9" rx="0.75" ry="0.45" fill="#FFD700" transform="rotate(-15 7.5 9)" />
  <ellipse cx="10" cy="11.5" rx="0.75" ry="0.45" fill="#4CAF50" transform="rotate(10 10 11.5)" />
  <ellipse cx="11.5" cy="7.7" rx="0.75" ry="0.45" fill="#2196F3" transform="rotate(-20 11.5 7.7)" />
  <ellipse cx="15" cy="8.2" rx="0.75" ry="0.45" fill="#FFEB3B" transform="rotate(15 15 8.2)" />
  <ellipse cx="16.5" cy="11.1" rx="0.75" ry="0.45" fill="#FF9800" transform="rotate(-5 16.5 11.1)" />


  <!-- Cherry with Shine -->
  <circle cx="12" cy="3.4" r="2.5" fill="url(#cherryGradient)" stroke="#880E4F" stroke-width="0.5"/>

</svg>
