<?xml version="1.0" encoding="utf-8"?><!-- Uploaded to: SVG Repo, www.svgrepo.com, Generator: SVG Repo Mixer Tools -->
<svg fill="#000000" width="800px" height="800px" viewBox="0 0 24 24" id="cupcake" data-name="Line Color" xmlns="http://www.w3.org/2000/svg" class="icon line-color"><path id="primary" d="M6.08,13l1.07,7.15a1,1,0,0,0,1,.85h7.72a1,1,0,0,0,1-.85L17.92,13Z" style="fill: rgb(139, 69, 19); stroke: rgb(139, 69, 19); stroke-linecap: round; stroke-linejoin: round; stroke-width: 2;"></path><path id="secondary" d="M6.08,13A3.56,3.56,0,0,1,5,10.5C5,8.28,7.35,7,7.35,7,9.24,9.24,12,9.11,16.44,9.5c2,.19,2.56,1.06,2.56,1.89A1.7,1.7,0,0,1,17.92,13ZM7.35,7C9.24,9.24,12,9.11,16.44,9.5a4.4,4.4,0,0,1,1.61.41C18.58,9.1,19.81,7,15,6c-3.9-.78-5-3-5-3A4,4,0,0,0,7.35,7Z" style="fill: none; stroke: rgb(255, 182, 193); stroke-linecap: round; stroke-linejoin: round; stroke-width: 2;"></path></svg>